<svg width="36" height="36" viewBox="0 0 36 36" fill="none" xmlns="http://www.w3.org/2000/svg">
<path d="M13.6802 25.3586L25.3117 17.9528L13.6802 10.547V25.3586ZM17.9059 35.3782C15.5244 35.3782 13.2736 34.9208 11.1535 34.006C9.03345 33.0911 7.182 31.8423 5.59919 30.2595C4.01638 28.6767 2.76756 26.8252 1.85272 24.7051C0.937886 22.585 0.480469 20.3343 0.480469 17.9528C0.480469 15.5713 0.937886 13.3205 1.85272 11.2004C2.76756 9.08033 4.01638 7.22887 5.59919 5.64606C7.182 4.06325 9.03345 2.81443 11.1535 1.8996C13.2736 0.984761 15.5244 0.527344 17.9059 0.527344C20.2874 0.527344 22.5382 0.984761 24.6583 1.8996C26.7784 2.81443 28.6298 4.06325 30.2126 5.64606C31.7954 7.22887 33.0442 9.08033 33.9591 11.2004C34.8739 13.3205 35.3313 15.5713 35.3313 17.9528C35.3313 20.3343 34.8739 22.585 33.9591 24.7051C33.0442 26.8252 31.7954 28.6767 30.2126 30.2595C28.6298 31.8423 26.7784 33.0911 24.6583 34.006C22.5382 34.9208 20.2874 35.3782 17.9059 35.3782ZM17.9059 32.7644C21.9718 32.7644 25.4569 31.3123 28.3612 28.408C31.2654 25.5038 32.7175 22.0187 32.7175 17.9528C32.7175 13.8868 31.2654 10.4018 28.3612 7.49752C25.4569 4.59328 21.9718 3.14116 17.9059 3.14116C13.84 3.14116 10.3549 4.59328 7.45064 7.49752C4.5464 10.4018 3.09428 13.8868 3.09428 17.9528C3.09428 22.0187 4.5464 25.5038 7.45064 28.408C10.3549 31.3123 13.84 32.7644 17.9059 32.7644Z" fill="white"/>
</svg>
